<svg width="21" height="18" viewBox="0 0 21 18" fill="none" xmlns="http://www.w3.org/2000/svg">
<path d="M7.12006 10.8461C6.08006 10.8461 5.23206 9.90106 5.23206 8.74506C5.23206 7.58906 6.05906 6.64306 7.12106 6.64306C8.17106 6.64306 9.03106 7.58806 9.01006 8.74506C9.01006 9.90106 8.17106 10.8461 7.12006 10.8461ZM14.0941 10.8451C13.0541 10.8451 12.2041 9.90006 12.2041 8.74406C12.2041 7.58806 13.0331 6.64206 14.0941 6.64206C15.1441 6.64206 16.0041 7.58706 15.9841 8.74406C15.9841 9.90006 15.1551 10.8451 14.0941 10.8451ZM8.72506 1.32106L8.41706 0.758057L7.78306 0.864057C6.34637 1.10418 4.94807 1.53463 3.62506 2.14406L3.39706 2.24906L3.25506 2.45906C0.64206 6.31206 -0.0749402 10.1071 0.28006 13.8341L0.31906 14.2411L0.64906 14.4811C2.18616 15.6091 3.90306 16.4689 5.72706 17.0241L6.51706 17.2661L7.63006 14.5501C9.54006 15.0221 11.6601 15.0221 13.5691 14.5501L14.6761 17.2671L15.4661 17.0251C17.2916 16.4713 19.0095 15.6107 20.5461 14.4801L20.8731 14.2421L20.9131 13.8401C21.3491 9.52006 20.2161 5.75706 17.9551 2.45606L17.8131 2.24806L17.5851 2.14406C16.2625 1.53716 14.8658 1.10681 13.4311 0.864057L12.8131 0.761057L12.4991 1.30306C12.4111 1.45306 12.3221 1.62306 12.2361 1.79606C11.1512 1.68486 10.0579 1.68486 8.97306 1.79606C8.88806 1.62606 8.80306 1.46206 8.72506 1.32106ZM5.31506 13.6101C5.51206 13.7241 5.72006 13.8361 5.92506 13.9381L5.47606 15.0341C4.26156 14.5916 3.10935 13.9939 2.04806 13.2561C1.82306 10.1181 2.46106 6.95106 4.61206 3.68606C5.51994 3.28659 6.46616 2.98067 7.43606 2.77306C7.49606 2.89806 7.55206 3.02106 7.59806 3.12906L7.87106 3.77206L8.56306 3.67106C9.91915 3.47227 11.297 3.47227 12.6531 3.67106L13.3431 3.77106L13.6151 3.12906C13.6621 3.01706 13.7171 2.89506 13.7751 2.77306C14.7521 2.98306 15.6981 3.29306 16.6031 3.68806C18.4781 6.50806 19.4241 9.65406 19.1491 13.2551C18.0872 13.9935 16.9343 14.5914 15.7191 15.0341L15.2741 13.9391C15.4801 13.8371 15.6881 13.7251 15.8871 13.6101C16.3771 13.3281 16.9041 12.9761 17.2401 12.6401L15.9601 11.3601C15.7971 11.5241 15.4371 11.7801 14.9831 12.0421C14.5391 12.2981 14.0981 12.5051 13.8161 12.5981C11.8131 13.2611 9.38806 13.2611 7.38406 12.5981C7.10306 12.5051 6.66206 12.2981 6.21806 12.0421C5.76406 11.7811 5.40406 11.5241 5.24006 11.3601L3.96006 12.6401C4.29706 12.9761 4.82506 13.3281 5.31506 13.6101Z" fill="#358BB9"/>
</svg>
