<svg width="14" height="22" viewBox="0 0 14 22" fill="none" xmlns="http://www.w3.org/2000/svg">
<path fill-rule="evenodd" clip-rule="evenodd" d="M5.33404 1.93414C6.41237 0.855802 7.87491 0.25 9.3999 0.25H12.3999C12.8141 0.25 13.1499 0.585786 13.1499 1V5C13.1499 5.41421 12.8141 5.75 12.3999 5.75H9.3999C9.3336 5.75 9.27001 5.77634 9.22313 5.82322C9.17624 5.87011 9.1499 5.9337 9.1499 6V8.25H12.3999C12.6309 8.25 12.8489 8.35641 12.9911 8.53844C13.1332 8.72048 13.1835 8.95785 13.1275 9.1819L12.1275 13.1819C12.044 13.5158 11.7441 13.75 11.3999 13.75H9.1499V21C9.1499 21.4142 8.81412 21.75 8.3999 21.75H4.3999C3.98569 21.75 3.6499 21.4142 3.6499 21V13.75H1.3999C0.985689 13.75 0.649902 13.4142 0.649902 13V9C0.649902 8.58579 0.985689 8.25 1.3999 8.25H3.6499V6C3.6499 4.47501 4.2557 3.01247 5.33404 1.93414ZM9.3999 1.75C8.27273 1.75 7.19173 2.19777 6.3947 2.9948C5.59767 3.79183 5.1499 4.87283 5.1499 6V9C5.1499 9.41421 4.81412 9.75 4.3999 9.75H2.1499V12.25H4.3999C4.81412 12.25 5.1499 12.5858 5.1499 13V20.25H7.6499V13C7.6499 12.5858 7.98569 12.25 8.3999 12.25H10.8143L11.4393 9.75H8.3999C7.98569 9.75 7.6499 9.41421 7.6499 9V6C7.6499 5.53587 7.83428 5.09075 8.16247 4.76256C8.49065 4.43438 8.93577 4.25 9.3999 4.25H11.6499V1.75H9.3999Z" fill="#358BB9"/>
</svg>
