<svg width="20" height="16" viewBox="0 0 20 16" fill="none" xmlns="http://www.w3.org/2000/svg">
<path fill-rule="evenodd" clip-rule="evenodd" d="M3 2C2.73478 2 2.48043 2.10536 2.29289 2.29289C2.21971 2.36608 2.15904 2.44944 2.11226 2.53966L10 7.79815L17.8877 2.53965C17.841 2.44944 17.7803 2.36608 17.7071 2.29289C17.5196 2.10536 17.2652 2 17 2H3ZM18 4.86852L10.5547 9.83205C10.2188 10.056 9.7812 10.056 9.4453 9.83205L2 4.86852V13C2 13.2652 2.10536 13.5196 2.29289 13.7071C2.48043 13.8946 2.73478 14 3 14H17C17.2652 14 17.5196 13.8946 17.7071 13.7071C17.8946 13.5196 18 13.2652 18 13V4.86852ZM0.87868 0.87868C1.44129 0.31607 2.20435 0 3 0H17C17.7957 0 18.5587 0.31607 19.1213 0.87868C19.6839 1.44129 20 2.20435 20 3V13C20 13.7957 19.6839 14.5587 19.1213 15.1213C18.5587 15.6839 17.7957 16 17 16H3C2.20435 16 1.44129 15.6839 0.87868 15.1213C0.31607 14.5587 0 13.7956 0 13V3C0 2.20435 0.31607 1.44129 0.87868 0.87868Z" fill="#358BB9"/>
</svg>
