<svg width="21" height="20" viewBox="0 0 21 20" fill="none" xmlns="http://www.w3.org/2000/svg">
<path d="M10.8 0C16.323 0 20.8 4.477 20.8 10C20.8 15.523 16.323 20 10.8 20C9.09802 20.0024 7.42376 19.5686 5.93705 18.74L5.63205 18.562L2.60005 19.454C2.43505 19.5026 2.26037 19.5083 2.09256 19.4705C1.92476 19.4327 1.76939 19.3526 1.64119 19.238C1.51298 19.1233 1.41619 18.9778 1.35999 18.8152C1.30379 18.6526 1.29004 18.4784 1.32005 18.309L1.34605 18.2L2.23805 15.168C1.2951 13.6093 0.797728 11.8218 0.800049 10C0.800049 4.477 5.27705 0 10.8 0ZM10.8 2C9.36768 1.99974 7.96151 2.38406 6.72838 3.11281C5.49525 3.84157 4.4804 4.88804 3.78981 6.14294C3.09922 7.39784 2.75821 8.81514 2.80241 10.2468C2.8466 11.6785 3.27437 13.0721 4.04105 14.282C4.23905 14.594 4.32405 14.978 4.25705 15.359L4.21805 15.522L3.77705 17.023L5.27805 16.582C5.71105 16.454 6.16105 16.532 6.51805 16.759C7.56638 17.4228 8.75474 17.8336 9.98919 17.959C11.2236 18.0844 12.4704 17.921 13.6308 17.4816C14.7912 17.0422 15.8334 16.3389 16.6752 15.4273C17.517 14.5157 18.1352 13.4208 18.4809 12.2291C18.8267 11.0374 18.8905 9.78168 18.6673 8.56111C18.4441 7.34053 17.9401 6.1886 17.195 5.19638C16.45 4.20415 15.4844 3.39883 14.3745 2.84408C13.2646 2.28933 12.0409 2.00036 10.8 2ZM7.90205 5.184C8.01287 5.13654 8.13407 5.11851 8.2539 5.13165C8.37374 5.14479 8.48815 5.18866 8.58605 5.259C9.09005 5.627 9.49005 6.121 9.83405 6.603L10.161 7.077L10.314 7.302C10.4027 7.43096 10.4462 7.58557 10.4379 7.74182C10.4295 7.89806 10.3698 8.04718 10.268 8.166L10.193 8.242L9.26905 8.928C9.22508 8.9606 9.19418 9.00781 9.1819 9.06115C9.16962 9.11449 9.17677 9.17046 9.20205 9.219C9.41205 9.599 9.78305 10.166 10.209 10.592C10.636 11.018 11.229 11.414 11.635 11.647C11.723 11.697 11.829 11.681 11.901 11.616L11.939 11.571L12.54 10.656C12.6502 10.5088 12.8132 10.4101 12.9947 10.3806C13.1761 10.3512 13.362 10.3932 13.513 10.498L14.056 10.877C14.596 11.262 15.115 11.676 15.526 12.201C15.6021 12.2997 15.6504 12.4168 15.6661 12.5404C15.6817 12.664 15.6641 12.7895 15.615 12.904C15.219 13.828 14.216 14.615 13.174 14.577L13.015 14.567L12.824 14.549L12.716 14.535L12.478 14.495C11.554 14.321 10.073 13.797 8.53805 12.263C7.00405 10.728 6.48005 9.247 6.30605 8.323L6.26605 8.085L6.24105 7.877L6.22805 7.702L6.22405 7.627C6.18605 6.583 6.97705 5.58 7.90205 5.184Z" fill="#358BB9"/>
</svg>
